<?xml version="1.0" standalone="no"?><!DOCTYPE svg PUBLIC "-//W3C//DTD SVG 1.1//EN" "http://www.w3.org/Graphics/SVG/1.1/DTD/svg11.dtd"><svg class="icon" width="200px" height="200.00px" viewBox="0 0 1024 1024" version="1.1" xmlns="http://www.w3.org/2000/svg"><path fill="#1afa29" d="M587.733333 617.045333c-10.965333-17.92-9.642667-41.984 18.133334-78.506666 34.304-43.904 67.498667-156.970667 65.962666-247.466667-2.133333-129.408-68.096-215.68-203.648-221.44l-4.906666-0.213333C325.504 75.306667 259.072 161.493333 256 290.858667c-2.133333 90.666667 30.293333 203.818667 64.810667 247.978666 28.202667 39.893333 29.952 64.256 20.181333 79.445334-1.28 1.962667-2.218667 2.986667-2.048 2.944-35.114667 22.698667-35.2 22.741333-145.450667 94.250666L46.421333 810.88a32 32 0 0 0-14.592 26.88v85.12c0 17.706667 14.336 32 32 32h801.536a32 32 0 0 0 31.658667-27.392c1.237333-8.32 1.408-25.557333 1.066667-52.565333a2810.197333 2810.197333 0 0 0-0.725334-38.058667 32 32 0 0 0-14.592-25.984l-291.754666-189.184a39.509333 39.509333 0 0 1-3.285334-4.693333z m246.528 273.834667H95.829333v-35.754667L375.466667 673.834667a75.093333 75.093333 0 0 0 19.413333-20.906667c24.576-38.272 20.864-90.752-22.698667-152.234667C346.538667 467.712 318.208 369.024 320 292.352c2.346667-98.090667 45.312-154.24 142.464-158.933333l3.157333 0.128c97.749333 4.181333 140.586667 60.16 142.208 158.634666 1.28 76.586667-27.690667 175.36-52.608 207.232-43.989333 57.770667-46.890667 110.506667-22.101333 151.04 5.973333 9.728 12.245333 16.64 17.408 20.992l3.157333 2.304 280.106667 181.632c0.256 12.245333 0.426667 24.789333 0.469333 35.498667z"  /><path fill="#1afa29" d="M743.253333 359.509333m31.402667 0l195.669333 0q31.402667 0 31.402667 31.402667l0 1.194667q0 31.402667-31.402667 31.402666l-195.669333 0q-31.402667 0-31.402667-31.402666l0-1.194667q0-31.402667 31.402667-31.402667Z"  /><path fill="#1afa29" d="M826.154667 496.512h144.213333c17.322667 0 31.36 14.08 31.36 31.402667v1.152c0 17.365333-14.08 31.445333-31.402667 31.445333h-144.213333a31.402667 31.402667 0 0 1-31.36-31.445333v-1.152c0-17.365333 14.08-31.402667 31.402667-31.402667z"  /><path fill="#1afa29" d="M846.549333 633.813333m31.402667 0l92.373333 0q31.402667 0 31.402667 31.402667l0 1.194667q0 31.402667-31.402667 31.402666l-92.373333 0q-31.402667 0-31.402667-31.402666l0-1.194667q0-31.402667 31.402667-31.402667Z"  /></svg>