<?xml version="1.0" standalone="no"?><!DOCTYPE svg PUBLIC "-//W3C//DTD SVG 1.1//EN" "http://www.w3.org/Graphics/SVG/1.1/DTD/svg11.dtd"><svg class="icon" width="200px" height="200.00px" viewBox="0 0 1024 1024" version="1.1" xmlns="http://www.w3.org/2000/svg"><path fill="#1afa29" d="M769.536 741.888c-77.824-13.312-111.616-56.32-123.392-76.288 67.072-69.12 114.688-184.32 114.688-303.104 0-192-125.44-292.864-248.832-292.864S263.168 169.984 263.168 361.984c0 119.296 47.616 233.984 114.688 303.104-11.776 19.968-45.568 62.976-123.392 76.288-115.712 19.968-185.344 92.672-185.344 193.536v19.968h885.248v-19.968c0-100.864-69.12-173.056-184.832-193.024z m133.12 166.4H120.832v-4.608c12.288-87.552 100.864-116.224 197.632-134.144 64.512-12.288 109.056-84.992 114.688-104.96-9.216-15.872-41.984-54.272-41.984-54.272-49.664-69.632-84.48-159.744-84.48-250.368 0-158.72 103.424-241.664 205.312-241.664 101.888 0 205.312 82.944 205.312 241.664 0 98.304-36.864 191.488-84.48 250.368-38.4 53.248-41.984 54.272-41.984 54.272 6.144 16.384 50.176 90.112 114.688 104.96 103.424 24.064 180.224 46.592 197.632 134.144l-0.512 4.608z"  /></svg>